<svg version="1.2" xmlns="http://www.w3.org/2000/svg" viewBox="0 0 450 450" width="512" height="512">
	<title>29490</title>
	<style>
		.s0 { fill: #479ad9 } 
		.s1 { fill: #006496 } 
		.s2 { mix-blend-mode: multiply;fill: #479ad9 } 
		.s3 { fill: #adcd16 } 
		.s4 { fill: #00752a } 
		.s5 { opacity: .4;mix-blend-mode: screen;fill: #ffffff } 
		.s6 { fill: #ffffff } 
	</style>
	<g id="_Artboards_">
	</g>
	<g id="Layer 1">
		<g id="&lt;Group&gt;">
			<g id="&lt;Group&gt;">
				<path id="&lt;Path&gt;" class="s0" d="m437.2 224.7c0 117.2-95.1 212.3-212.3 212.3-117.3 0-212.3-95.1-212.3-212.3 0-117.3 95-212.3 212.3-212.3 117.2 0 212.3 95 212.3 212.3z"/>
				<path id="&lt;Compound Path&gt;" fill-rule="evenodd" class="s1" d="m224.9 439c-118.2 0-214.3-96.2-214.3-214.3 0-118.2 96.1-214.3 214.3-214.3 118.1 0 214.3 96.1 214.3 214.3 0 118.1-96.2 214.3-214.3 214.3zm0-424.6c-116 0-210.3 94.3-210.3 210.3 0 115.9 94.3 210.3 210.3 210.3 115.9 0 210.3-94.4 210.3-210.3 0-116-94.4-210.3-210.3-210.3z"/>
			</g>
			<g id="&lt;Group&gt;" style="opacity: .3">
				<path id="&lt;Path&gt;" class="s2" d="m104.4 238.3c-11.4-21.5-38.1-23.7-54-40.8-6.9-7.4-9.7-16.3-13.2-25.5-2.9-7.7-6.7-13.6-12.8-17.3q-1.9 5.4-3.5 11c8.2 6.4 22.6 20.6 11.9 25.8-5.1 2.4-12.2-0.7-17-3.4q-0.8 4.2-1.4 8.5c10.6 3.4 20.7 5.9 29.3 13.4 8.6 7.4 14.6 17 21.7 25.7 7.1 8.6 15.8 18.2 27.1 20.9 4.1 1 15.3 2.6 16.2-3.8 0.7-4.7-2.1-10.5-4.3-14.6z"/>
				<path id="&lt;Path&gt;" class="s2" d="m222.6 432.1c-8.3-4.8-16.8-9.5-24.3-15.4-5.3-4.2-12-9.3-14.5-15.7-2.1-5.6 1.4-9.7 7-10.7 7.8-1.4 15.6 2.2 22.3 6.1 8 4.6 15.2 10.4 23.2 15 10.5 6.1 22.2 10 32.6 16.2q2.7 1.7 5.4 3.5c6.6-1.5 13.2-3.4 19.6-5.6-13.6-8.3-26.3-18.4-36.7-30.3-7.9-9.1-14.8-19.4-23.7-27.5-5.1-4.7-10.9-8.9-17.4-11.4-6.7-2.5-13.6-4.4-20.3-6.9-13.8-5.1-27.5-10.8-41.1-16.7-10.3-4.6-25.8-11.8-34.7-0.9-15.4 18.8 5.2 45.6 19.8 58.1 16.6 14 32.4 29 48.9 43.2q2.1 0.7 4.3 1.5c10.4 1.5 21 2.4 31.9 2.4 2.2 0 4.3-0.1 6.5-0.2q-4.5-2.3-8.8-4.7z"/>
				<path id="&lt;Compound Path&gt;" fill-rule="evenodd" class="s2" d="m273.4 243.3c-2.5 6.9 2 15.8 5.7 21.3 5.5 8.3 13.8 14.4 22.1 19.7 14.9 9.6 31.7 17.7 47.7 25.1 10.8 5 22 9 32.7 14.2 8.1 4 15.9 8.6 24.2 12.2-18.1 29.3-43.1 53.9-72.7 71.5q-5.1-2.1-10.3-3.9c-13.6-5.1-27.5-9.4-40.2-16.7-23.6-13.6-33.8-40.6-54.5-57.4-19.6-16-45.3-20.5-69.6-25-17.2-3.2-35.3-10.8-53-8-6.8 1.1-12.5 5-15.4 11.3-3.4 7.6-1.3 16.5 1 24 2.7 9.3 7 18.1 11.3 26.7 5.2 10.4 9.9 20.6 16.8 30 6.2 8.5 13.8 15.8 22.4 22 10.6 7.7 23 12.7 34.2 19.4 1.7 1 3.5 1.9 5.5 2.8-96.3-20.1-168.7-105.5-168.7-207.8q0-6.7 0.4-13.3c6.1 1.8 12.4 3 17.2 4.5 4.1 1.3 8.1 2.9 11.7 5.2 5.1 3.3 8.5 9.2 11.4 14.3 5.8 9.9 10.1 20.7 17.5 29.6 16 19.7 41.2 15.8 62.8 9.4 6.6-2 13.1-5.6 11.4-13.4-1.2-5.5-5.6-10.9-8.7-15.4-4.2-6-8.8-11.7-13.6-17.3-10.2-11.6-21-21.8-34.3-29.8-11-6.6-23.6-12.7-30-24.5-3.7-6.8-3.9-14.7-3-22.2 0.9-6.9 2.1-14.1-1.6-20.4-2.5-4.4-7.4-6.4-11.9-8.2-0.8-0.4-1.8-0.7-2.9-1.1 36.2-65.4 105.8-109.7 185.9-109.7 117.2 0 212.3 95 212.3 212.3 0 13.6-1.3 27-3.8 40-9.5-5.9-18.7-12.4-28.9-17-12.1-5.5-23.6-5.2-36.6-3.9-13.8 1.4-27.7 1.4-41.2-2.2-6.7-1.8-13.5-3.6-20.3-4.9-9.5-1.8-28.7-5.5-33 6.6zm74.4-64.4c-4.9-4.9-10.1-9.8-16.1-13.4q-1.3-1-2.8-2c-5.6-3.6-12.5-4.9-18.9-6.2-4.3-0.8-25-3.9-18.9 6.9 2.2 4 7.5 6.7 11.4 8.8 5.2 2.8 10.8 5.2 16.3 7.4 14.6 5.8 24.1 12.7 33.4 25.4 6.3 8.7 14.4 16 24.6 19.6 8.5 3 19.3 7.4 28.5 6.2 8.1-1.2 7.2-7.2 2.3-11.7-8-7.6-19.2-12-28.9-16.9-12-6.1-21.5-14.6-30.9-24.1zm-50.8-94.8c1.2 0.4 1.7-1.5 0.5-1.9-2.7-0.9-5.6-2.2-8.4-3.9 1.1 0.5 2.2 0.8 3.4 1.2 5 2.1 11.1 2.4 15.9 4.5 0.5 0.2 1 0 1.2-0.3q2.1 0.7 4.1 1.7c4.9 2.4 8 7 10.7 11.6 4.4 7.3 7.7 15.2 14.7 20.7 4.6 3.6 12.8 4.7 15.4-1.9 2.6-6.6-5.1-16-8.3-21.2-5.2-8.5-11.2-16.3-19.3-22.3-3.9-2.9-8.1-5-12.6-6.6 0.7-0.4 0.9-1.7-0.1-1.9-5-1-10-1.9-15.1-2.3q-1.2-0.1-2.6-0.2c-5.4-1-15.9-4.1-19.8 0.1-8.2 8.6 14.4 20.8 20.3 22.7z"/>
				<path id="&lt;Path&gt;" class="s2" d="m410.5 316.6c-9.8-4.6-23.4-10.6-26.9-21.9-7.2-23 33.6-2.7 41.3 0.1q0.1 0.1 0.3 0.2 2.7-7.8 4.9-15.9c-22.9-14.1-48.7-15.5-75.2-16-12.1-0.2-24.4-0.5-36.4-2.4-2-0.4-7.7-1.7-8.3 1.6-0.7 3.2 0.5 6.6 2.8 8.9 3.7 3.9 8.6 6.3 13.5 8.1 10.8 3.8 21.1 7.3 31 13.3 11.2 6.7 21.4 14.8 32.1 22.3 6.7 4.7 13.4 9.4 20.5 13.5q2.6-4.8 5.1-9.7-2.4-1.1-4.7-2.1z"/>
			</g>
			<g id="&lt;Group&gt;">
				<g id="&lt;Group&gt;">
					<path id="&lt;Path&gt;" class="s3" d="m296.2 90.2c-7.8 0.1-17.4 5.1-25.1 2.1-3.6-1.4-5.3-3.9-6.1-7.7-0.6-2.4-0.8-5-1.7-7.3-1.2-3.4-4-4.3-7.3-5.2-3.5-1.1-6.6-1.6-8.9-4.6-1.3-1.9-3.3-4.4-2-6.7 1.2-2.1 5.4-2 7.4-2.1 6-0.5 11.6-1.4 17-4.2 9.9-5.1 17.9-12.2 28.8-15-3.4-4.8-9-6.4-14.6-7.4-0.9-0.2-1-1.4-0.3-1.8 3.1-1.8 7.1-3.9 9.9-6.7-21.5-7.3-44.5-11.2-68.4-11.2q-0.1 0-0.1 0c-1.3 1.7-2.3 3.7-3.3 6.1-1 2.6-2.5 5.4-5.1 6.8-3.5 2.1-6.5 2.3-10.3 0.8-3.6-1.5-9.7-4.2-13.4-1.8-2.7 1.7-4.7 3.7-7.6 5-2.6 1.2-6.3 0.7-8.9 0.6-9.8-0.5-18 0.9-25.7 6.5-3.9 3.8-7.1 8.3-8.9 13.6-2.5 6.9-7.1 11-13.3 14.6-13.7 8-29.1 12.6-35.2 28.8-2.2 6-4.1 11.7-9.3 15.8-6.3 5.1-14.6 8.5-14.8 17.7-0.1 4.5 2.2 8.1 2.5 12.4 0.3 3.6-1.9 6.6-3.8 9.5-1.7 2.8-5.7 8.7-3.2 12.2 1.8 2.6 5 4.4 7.8 6.1 2.2-3.8 5.8-11 10.6-10.7 6.4 0.4 12.8 5.2 18.5 7.8 4.6 2.1 6.6 4.6 6.5 9.9-0.1 2.9-0.8 3.9 2.5 4.7 3 0.6 5.9 1.4 8.8 2.4 3.9 1.3 7.7 2.7 11.5 4.1 3.3-0.6 6.4-1.6 9.5-3 10.9-4.9 18.7-13.6 24.9-23.7 0.2-0.4 0.9-0.7 1.3-0.3 3.9 2.9 9.6 6.6 10.5 11.9 0.5 3.4-2.3 6.6-3.8 9.4-1.6 3.2-2.8 6.6-3.1 10.2-0.4 5.9 2.7 9.4 6.2 13.7 5.8 7.4 7 16.2 7.4 25.4 0.6 10.5 1.1 20.6 6.3 29.9 3.4 6.1 7.8 11.3 12.9 15.9 6.3 1.2 13.7 1.7 18.2 5.7 2.2 1.9 2.7 5 2.9 7.8 0 1-0.1 2.6-0.1 4.2 0.7 0.6 1.4 1.2 2.1 1.8 1.6 0 3.4 0 5.1 0 5.2 0 9.5 1.2 14.2 3.4 3.1 1.4 6.1 2.9 9.2 4.2 0.4 0.2 1.2 0.4 1.9 0.6q0.3-4.4 0.7-8.7c-0.7-1.5-1.5-2.7-2.3-3.7-2.8-3.1-6.5-5.5-8.5-9.2-1.3-2.4-2.3-6.1-4.3-8-3-2.7-5.7-1.8-8.9-0.9-2.5 0.7-4.7 0.2-5.9-2.3-2.7-5.1-2.5-9.5 3.1-12 2.8-1.3 6-1.6 8.6-3 8.9-4.8 19.5-12.8 18.4-23.2-0.3-3.1-0.4-7 1.7-9.5 3.3-4 8.8-3.8 13.4-5.8 16-6.9 15.7-32 8-44.3-4.2-6.7-9.5-13.7-9.8-21.9-0.5-17.6 19-26.7 29-38.6 2.8-3.3 6.1-7.5 6.1-12.1-0.1-5.5-4-9.1-9.4-9z"/>
					<path id="&lt;Path&gt;" class="s3" d="m320 190.8c-7.7 2.8-13.8 12.8-16.2 20.2-0.7 2-1.2 4.1-1.7 6.1-0.3 4.7 0.7 9.1 4.5 12.5 1.5 1.3 3.5 2.7 4.3 4.6 1.1 2.7 1.1 5.8 2.2 8.6 6.2 14.6 18.8-9.1 20.1-15.1 1.3-6.4-1.7-12.9-3.7-18.8-1.2-3.2-4.6-19.9-9.5-18.1z"/>
					<path id="&lt;Path&gt;" class="s3" d="m339.3 47.7c-2.6 11.8-0.3 22.5 7.2 32.1 6.7 8.8 16.2 16 21.8 25.6 5.7 10 1.9 18.2-1.1 28.3-1.5 5.1-2.9 11.5-0.1 16.4 1.5 2.7 3.4 5.3 5.4 7.7 5.1 6.2 10.6 12.3 16.7 17.6 2.6 2.2 5.2 4.6 8.3 6.1 4.1 2.1 6.5-2.7 7.1-6.3 1-5.7-1-17 5.6-20.1 4.6-2.2 9.2-2.7 13.1-6.1-15.6-40.8-43.3-75.5-78.8-99.7q-2.6-0.9-5.2-1.6z"/>
					<path id="&lt;Path&gt;" class="s3" d="m421.8 202.9c1.3 5 4.5 9.6 7.2 14.1 2.6 4.3 5.2 8.6 8.1 12.7q0.1-2.5 0.1-5c0-13-1.2-25.8-3.4-38.1-3.4-2.9-6.9-5.4-10.9-7.3-0.5 7.7-3.2 16.1-1.1 23.6z"/>
					<path id="&lt;Path&gt;" class="s3" d="m72.2 337.6c2.8-5.4 5.2-10.2 3.5-16.4-1.5-5.3-4.1-10.1-7-14.7-5.2-8.2-11.8-16.2-15.3-25.4-2.2-5.6-2.1-11.6-2.9-17.5-1-7.5-3.9-13.2-9.5-18.4-4-3.7-8.1-7.1-11.3-11.6-2-2.8-3.2-6.1-4.6-9.2-1.6-3.6-3.4-9.1-7-11.1-1.9-1.1-3.7-1-5.2-0.2q-0.3 5.7-0.3 11.6c0 53.6 19.9 102.5 52.6 139.9 1.3-9.5 2.5-18.3 7-27z"/>
					<path id="&lt;Path&gt;" class="s3" d="m79.8 286.6c-1.9-1.1-8.5-5.1-10.1-1.7-1.3 3 1.7 6.3 3.6 8.2 0.3 0.3 0.4 0.7 0.2 1 3 2.5 6.7 4.2 10.4 5.5-0.7-4.5-0.1-10.5-4.1-13z"/>
					<path id="&lt;Path&gt;" class="s3" d="m162.3 206.6q-0.1 0-0.1 0c-3.3-1-6.8-0.5-10.1-0.8 0.6 4.8 2.3 8.4 7.6 9.9 0.5 0.1 0.8 0.7 0.7 1.2-0.4 2.4-1.8 6.7-0.3 9 1.5 2.3 9.2 5.9 9.9 0.9 0.6-4-0.2-9.4-1.7-13.1-1.2-3-3.3-5.4-6-7.1z"/>
					<path id="&lt;Path&gt;" class="s3" d="m306.3 151.1c-0.2 2-0.1 5.9 2.6 6.4 0.2 0.1 4.9-0.4 4.3-1.3q-0.5-0.8-1-1.7c-1.4-2.4-2.6-5.1-4.1-7.5-1.8-2.7-4.1-4.7-7.5-4.5-2.5 0.1-4.9-0.1-3.9 3q0.4 1.5 1.2 2.7c2.2 1.2 4.6 1.8 7.4 1.9 0.5 0.1 1 0.5 1 1z"/>
					<path id="&lt;Path&gt;" class="s3" d="m76.1 243q-3.2-0.7-6.3-1.4c-5.8-1.3-11.3-2.8-16.2-5.8 0.9 4.4 0.4 9.2 3.1 13.2 3.7 5.5 10.6 8 16.2 11.4 2.1-3.8 3.6-8.1 4-12.4 0.1-1.2 1-4.6-0.8-5z"/>
				</g>
				<g id="&lt;Group&gt;" style="mix-blend-mode: multiply">
					<path id="&lt;Compound Path&gt;" fill-rule="evenodd" class="s3" d="m305.6 99.2c0 4.6-3.3 8.8-6.1 12.1-10 11.9-29.5 21-29 38.6 0.3 8.2 5.6 15.2 9.8 21.9 7.7 12.3 8 37.4-8 44.3-4.6 2-10.1 1.8-13.4 5.8-2.1 2.5-2 6.4-1.7 9.5 1.1 10.4-9.5 18.4-18.4 23.2-2.6 1.4-5.8 1.7-8.6 3-5.6 2.5-5.8 6.9-3.1 12 1.2 2.5 3.4 3 5.9 2.3 3.2-0.9 5.9-1.8 8.9 0.9 2 1.9 3 5.6 4.3 8 2 3.7 5.7 6.1 8.5 9.2 0.8 1 1.6 2.2 2.3 3.7q-0.4 4.3-0.7 8.7c-0.7-0.2-1.5-0.4-1.9-0.6-3.1-1.3-6.1-2.8-9.2-4.2-4.7-2.2-9-3.4-14.2-3.4-1.7 0-3.5 0-5.1 0-0.7-0.6-1.4-1.2-2.1-1.8 0-1.6 0.1-3.2 0.1-4.2-0.2-2.8-0.7-5.9-2.9-7.8-4.5-4-11.9-4.5-18.2-5.7-5.1-4.6-9.5-9.8-12.9-15.9-5.2-9.3-5.7-19.4-6.3-29.9-0.4-9.2-1.6-18-7.4-25.4-3.5-4.3-6.6-7.8-6.2-13.7 0.3-3.6 1.5-7 3.1-10.2 1.5-2.8 4.3-6 3.8-9.4-0.9-5.3-6.6-9-10.5-11.9-0.4-0.4-1.1-0.1-1.3 0.3-6.2 10.1-14 18.8-24.9 23.7-3.1 1.4-6.2 2.4-9.5 3-3.8-1.4-7.6-2.8-11.5-4.1-2.9-1-5.8-1.8-8.8-2.4-3.3-0.8-2.6-1.8-2.5-4.7 0.1-5.3-1.9-7.8-6.5-9.9-5.7-2.6-12.1-7.4-18.5-7.8-4.8-0.3-8.4 6.9-10.6 10.7-2.8-1.7-6-3.5-7.8-6.1-2.5-3.5 1.5-9.4 3.2-12.2 1.9-2.9 4.1-5.9 3.8-9.5-0.3-4.3-2.6-7.9-2.5-12.4 0.2-9.2 8.5-12.6 14.8-17.7 5.2-4.1 7.1-9.8 9.3-15.8 6.1-16.2 21.5-20.8 35.2-28.8 6.2-3.6 10.8-7.7 13.3-14.6 1.8-5.3 5-9.8 8.9-13.6 7.7-5.6 15.9-7 25.7-6.5 2.6 0.1 6.3 0.6 8.9-0.6 2.9-1.3 4.9-3.3 7.6-5 3.7-2.4 9.8 0.3 13.4 1.8 3.8 1.5 6.8 1.3 10.3-0.8 2.6-1.4 4.1-4.2 5.1-6.8 1-2.4 2-4.4 3.3-6.1q0 0 0.1 0c23.9 0 46.9 3.9 68.4 11.2-2.8 2.8-6.8 4.9-9.9 6.7-0.7 0.4-0.6 1.6 0.3 1.8 5.6 1 11.2 2.6 14.6 7.4-10.9 2.8-18.9 9.9-28.8 15-5.4 2.8-11 3.7-17 4.2-2 0.1-6.2 0-7.4 2.1-1.3 2.3 0.7 4.8 2 6.7 2.3 3 5.4 3.5 8.9 4.6 3.3 0.9 6.1 1.8 7.3 5.2 0.9 2.3 1.1 4.9 1.7 7.3 0.8 3.8 2.5 6.3 6.1 7.7 7.7 3 17.3-2 25.1-2.1 5.4-0.1 9.3 3.5 9.4 9zm-69.2-57c4.7 4 15.6-0.3 20.6-2 5.6-1.8 14.5-8.2 6.8-14.1-4.2-3.3-9-1-13.4 2.2-4.4 0.6-8.8 1.5-12.1 4.7-1.8 1.7-4.4 7.1-1.9 9.2zm7.4 170.4c-1.8-7.3-10.8-10.1-16.8-12.8-3.9-1.7-7.7-3.8-9.9-7.6-2.8-4.7 0-10.1 3-13.9 4.8-6 13.2-11.3 13.2-19.9 0-7.6-7.8-14.2-15-14.5-8.6-0.4-16.5 6.7-21.8 12.6-4.2 4.8-8.4 10.8-10.3 17.2-1.4 2.2-2.6 4.4-3.4 7-1.5 5.1 1.4 9.6 4.3 13.6 1.8 2.5 3.5 5 4.3 8.1 1.1 3.8-0.4 8.2-1.4 11.8-1.8 6.5-2.8 12.2-2.1 18.9 1.1 10.5 5.5 21.8 14.1 28.3 3.5 2.8 7.7 3.8 11.8 1.6 3.6-2 3.7-7.9 3.9-11.4 0.4-5.6 2-9.2 6.3-12.9 3.7-3.2 8-5.5 11.9-8.4 5.8-4.4 9.8-10.2 7.9-17.7zm5.4-62.2c-0.7-4.8-5-7.1-8.7-3.6-0.2 0.2-0.3 0.5-0.3 0.7-4.9 3.2-6.7 14.2 1.5 13.5 5.4-0.5 8.2-5.6 7.5-10.6zm-5.9-67c-3.5-4.4-3.3-9.7-5.3-14.6-1.9-4.5-6.3-6.8-10.4-8.7-3.2-1.5-6.5-3-9.5-4.9-1.8-1.1-3.8-2.8-3.9-5.2-0.2-3.1 4.5-5.9 6.6-7.3 5.2-3.6 12.4-5.4 13.7-12.5 0.5-3.1-1.3-13.3-6.4-12-4.4 1.2-7.5 6.6-10 10.8-2.9 2.1-6.3 3.4-9.7 3.5-5.6 0.2-11.1-3.4-16.6-2.4-5.5 1-8.9 5.8-14.3 7.1-6.2 1.6-12.3-0.4-18.3 2.5-11 5.2-8.7 18.2-15.4 26.4-6.7 8.2-19.2 10.7-28.1 15.7-4.9 2.7-9.6 6.2-13.5 10.2-4.6 4.8-4.6 11.7-8.7 16.8-4.7 5.9-13.7 9.5-15 17.9-0.4 3.2 1.6 5.7 3.9 7.6 4 3.3 8.1 3.2 13 2.4 8.4-1.5 11.2 2.3 14.2 9.3 2.1 4.8 5.1 8.6 9.8 11 8.9 4.5 18.2-3.4 23.9-9.5 6.6-7 11.9-15.2 18.7-22.1 5.6-5.7 20.2-18.3 26.8-7 3.6 6.2 0.4 13.8 8.3 17.3 10.7 4.8 21.6-2.4 29.7-8.5 8.8-6.5 19.2-11.7 24.3-21.9 5.1-10-2-14.6-7.8-21.9z"/>
					<path id="&lt;Compound Path&gt;" fill-rule="evenodd" class="s3" d="m333.2 227.7c-1.3 6-13.9 29.7-20.1 15.1-1.1-2.8-1.1-5.9-2.2-8.6-0.8-1.9-2.8-3.3-4.3-4.6-3.8-3.4-4.8-7.8-4.5-12.5 0.5-2 1-4.1 1.7-6.1 2.4-7.4 8.5-17.4 16.2-20.2 4.9-1.8 8.3 14.9 9.5 18.1 2 5.9 5 12.4 3.7 18.8zm-14 3.1c-0.9-0.3-1.8-0.2-2.6 0.5-0.6 0.4-0.8 1.2-0.9 2-1.2 1.6-1.3 3.9-0.1 5.6 2 2.7 5.2-0.2 6-2.5 0.9-2.1-0.1-4.8-2.4-5.6zm0.3-29.8c-4.1-6.1-8.2 0.1-9.9 4.6-3.7 6.4-8.1 12.1-2.8 19.3 4.3 5.8 11.3 5.5 14-1.1 2.5-6.2 2.6-17.1-1.3-22.8z"/>
					<path id="&lt;Compound Path&gt;" fill-rule="evenodd" class="s3" d="m423.3 149c-3.9 3.4-8.5 3.9-13.1 6.1-6.6 3.1-4.6 14.4-5.6 20.1-0.6 3.6-3 8.4-7.1 6.3-3.1-1.5-5.7-3.9-8.3-6.1-6.1-5.3-11.6-11.4-16.7-17.6-2-2.4-3.9-5-5.4-7.7-2.8-4.9-1.4-11.3 0.1-16.4 3-10.1 6.8-18.3 1.1-28.3-5.6-9.6-15.1-16.8-21.8-25.6-7.5-9.6-9.8-20.3-7.2-32.1q2.6 0.7 5.2 1.6c35.5 24.2 63.2 58.9 78.8 99.7zm-33.1-4c-0.4-7.6-3-14.4-1.9-22.2 0.7-5.3 1.5-10.3 0.5-15.7-1.1-6.1-4.3-12.3-7.4-17.7-6-10.6-14.8-19.3-23.9-27.4-2.8-2.5-5.8-6.6-9.7-7.3-2.3-0.4-4.2 2-4.4 4.1-0.3 3.4 0.8 6.8 2.4 10 1.7 6.7 5.8 12.8 11 17.1 5.4 4.4 9.6 9.1 12.8 15.5 3.6 7.2 6.7 16.4 5 24.5-1 5.3-3.9 9.9-4.2 15.4-0.2 4.7 2.8 8.5 5.5 12 3.6 4.6 10.3 10.5 13.4 2.3 1.3-3.3 1.1-7.2 0.9-10.6zm8-14.4c-3.3-0.1-4.3 3.8-4.6 7.2-2 2.7-1.4 6.6 0.8 9.2 3.3 3.8 7.6 2.2 9.1-2.3 1.2-3.8 0.3-13.9-5.3-14.1z"/>
					<path id="&lt;Compound Path&gt;" fill-rule="evenodd" class="s3" d="m437.2 224.7q0 2.5-0.1 5c-2.9-4.1-5.5-8.4-8.1-12.7-2.7-4.5-5.9-9.1-7.2-14.1-2.1-7.5 0.6-15.9 1.1-23.6 4 1.9 7.5 4.4 10.9 7.3 2.2 12.3 3.4 25.1 3.4 38.1zm-7.6-35.2c-2.8-1.1-4.1 1.6-4.3 3.9-1.4 2.7 0.1 7.6 1 9.9 1 2.5 5.2 8.8 7.3 3.4 1.8-4.7 1.6-15-4-17.2z"/>
					<path id="&lt;Compound Path&gt;" fill-rule="evenodd" class="s3" d="m72.2 337.6c-4.5 8.7-5.7 17.5-7 27-32.7-37.4-52.6-86.3-52.6-139.9q0-5.9 0.3-11.6c1.5-0.8 3.3-0.9 5.2 0.2 3.6 2 5.4 7.5 7 11.1 1.4 3.1 2.6 6.4 4.6 9.2 3.2 4.5 7.3 7.9 11.3 11.6 5.6 5.2 8.5 10.9 9.5 18.4 0.8 5.9 0.7 11.9 2.9 17.5 3.5 9.2 10.1 17.2 15.3 25.4 2.9 4.6 5.5 9.4 7 14.7 1.7 6.2-0.7 11-3.5 16.4zm-8.6-3.5c0-7.5-0.1-15.9-1.7-23.2-2.2-10.5-12-15.9-16.9-24.9-5.4-10-4.5-22.3-8.7-32.7-2.6-6.3-8.1-13-13.9-16.5-0.4-0.3-1.1-0.2-1.3 0.3-2.4 5.6-2.7 11.6-1.7 17.7 0 4.7 0.7 9.4 1.5 13.9 2.1 11.1 6.5 21.3 11.5 31.4 3.3 6.7 7.1 13.2 9.6 20.3 1.5 4.4 2.2 9.2 3.6 13.7 1.5 5.1 5 15.2 12.3 13.8 5.7-1.1 5.7-9.4 5.7-13.8zm-21.5-77q0 0 0 0c-2.1 3.5-0.8 7.7 2.1 10.2 0.5 0.5 1.2 0.4 1.6-0.2 2.4-3.2 1.4-10.8-3.1-11.9-1.2-0.3-1.8 1.5-0.6 1.9z"/>
					<path id="&lt;Path&gt;" class="s3" d="m79.8 286.6c-1.9-1.1-8.5-5.1-10.1-1.7-1.3 3 1.7 6.3 3.6 8.2 0.3 0.3 0.4 0.7 0.2 1 3 2.5 6.7 4.2 10.4 5.5-0.7-4.5-0.1-10.5-4.1-13z"/>
					<path id="&lt;Path&gt;" class="s3" d="m162.3 206.6q-0.1 0-0.1 0c-3.3-1-6.8-0.5-10.1-0.8 0.6 4.8 2.3 8.4 7.6 9.9 0.5 0.1 0.8 0.7 0.7 1.2-0.4 2.4-1.8 6.7-0.3 9 1.5 2.3 9.2 5.9 9.9 0.9 0.6-4-0.2-9.4-1.7-13.1-1.2-3-3.3-5.4-6-7.1z"/>
					<path id="&lt;Path&gt;" class="s3" d="m306.3 151.1c-0.2 2-0.1 5.9 2.6 6.4 0.2 0.1 4.9-0.4 4.3-1.3q-0.5-0.8-1-1.7c-1.4-2.4-2.6-5.1-4.1-7.5-1.8-2.7-4.1-4.7-7.5-4.5-2.5 0.1-4.9-0.1-3.9 3q0.4 1.5 1.2 2.7c2.2 1.2 4.6 1.8 7.4 1.9 0.5 0.1 1 0.5 1 1z"/>
					<path id="&lt;Path&gt;" class="s3" d="m76.1 243q-3.2-0.7-6.3-1.4c-5.8-1.3-11.3-2.8-16.2-5.8 0.9 4.4 0.4 9.2 3.1 13.2 3.7 5.5 10.6 8 16.2 11.4 2.1-3.8 3.6-8.1 4-12.4 0.1-1.2 1-4.6-0.8-5z"/>
				</g>
			</g>
			<g id="&lt;Group&gt;">
				<path id="&lt;Compound Path&gt;" fill-rule="evenodd" class="s4" d="m256.3 303.4q-0.1 0-0.2 0l-0.5-0.1c-0.7-0.2-1.3-0.4-1.6-0.5q-2.6-1.2-5.2-2.4-2-1-4-1.9c-5.1-2.3-9.2-3.3-13.8-3.3h-0.2q-1.2 0-2.4 0-1.1 0-2.3 0h-0.3q-0.3 0-0.6-0.2-0.7-0.6-1.3-1.2l-0.8-0.7c-0.2-0.2-0.3-0.4-0.3-0.7q0-1 0-1.8c0.1-0.9 0.1-1.7 0.1-2.3-0.2-2.6-0.6-5.4-2.6-7.2-3.5-3.1-9.1-4-14.5-4.9q-1.6-0.2-3.2-0.5-0.3 0-0.5-0.2c-5.6-5.2-9.9-10.5-13-16.2-5.4-9.7-6-20.2-6.5-30.3-0.4-8.1-1.3-17.4-7.2-24.9l-0.6-0.6c-3.2-4-6.2-7.8-5.8-13.8 0.3-3.4 1.3-6.9 3.2-10.6 0.4-0.7 0.9-1.4 1.3-2.1 1.3-2.2 2.7-4.4 2.4-6.7-0.7-4.2-5.2-7.6-8.7-10.2l-1.4-1c-7 11.7-15.3 19.6-25.2 24.1-2.9 1.4-6.1 2.4-9.7 3.1q-0.3 0-0.5 0l-2.2-0.9c-3.1-1.1-6.2-2.2-9.3-3.3-2.7-0.9-5.5-1.6-8.7-2.4-3.4-0.7-3.5-2.1-3.4-4.4q0.1-0.6 0.1-1.2c0.1-4.6-1.4-6.9-5.9-9-1.8-0.8-3.5-1.7-5.3-2.7-4.2-2.3-8.6-4.7-12.8-5h-0.3c-3.6 0-6.7 5.3-8.7 8.9q-0.4 0.7-0.8 1.3-0.2 0.3-0.6 0.5-0.4 0-0.8-0.2l-0.9-0.5c-2.5-1.6-5.4-3.3-7.2-5.9-2.6-3.8 1.1-9.7 3.1-12.8l0.8-1.3c1.7-2.6 3.2-5.1 3-8-0.1-1.8-0.7-3.5-1.2-5.3-0.7-2.3-1.4-4.6-1.3-7.2 0.1-7.8 5.7-11.7 11.1-15.5 1.4-0.9 2.8-1.9 4.1-2.9 4.6-3.7 6.5-8.8 8.5-14.2l0.5-1.3c5-13.2 15.7-18.8 27.1-24.7 2.8-1.4 5.7-2.9 8.4-4.5 7.1-4.1 10.8-8.2 12.9-14.2 1.8-5 4.9-9.7 9.2-13.9 6.5-4.8 13.6-6.9 23.2-6.9q1.6 0 3.2 0.1 0.7 0 1.5 0c0.9 0.1 1.9 0.2 2.9 0.2 1.8 0 3.1-0.2 4.1-0.7 1.7-0.8 3.1-1.8 4.6-2.9 0.9-0.7 1.8-1.4 2.8-2q1.8-1.1 4.2-1.1c3.2 0 6.8 1.4 9.4 2.5l0.7 0.3c3.6 1.4 6.2 1.2 9.5-0.7 2.5-1.5 3.9-4.3 4.7-6.4 1.2-2.8 2.2-4.7 3.4-6.3 0.2-0.3 0.5-0.5 0.8-0.4 23.6 0 46.7 3.8 68.8 11.3 0.3 0.1 0.6 0.4 0.6 0.7 0.1 0.3 0 0.7-0.2 0.9-2.6 2.6-6.1 4.6-9.1 6.3l-1 0.5c5.7 1 11.6 2.7 15.2 7.8 0.2 0.3 0.2 0.6 0.1 1-0.1 0.3-0.4 0.5-0.7 0.6-6.9 1.8-12.7 5.3-18.7 9.1-3.2 2-6.4 4-9.8 5.8-5.9 3-11.9 3.8-17.4 4.3q-0.5 0-1 0c-1.8 0.1-4.8 0.3-5.6 1.6-0.9 1.5 0.3 3.3 1.8 5.3l0.1 0.3c1.7 2.3 4.1 3 7 3.8q0.7 0.2 1.4 0.4c3.2 0.9 6.6 1.9 8 5.9 0.6 1.6 0.9 3.4 1.2 5q0.2 1.2 0.5 2.4c0.8 3.8 2.4 5.8 5.4 7 1.6 0.6 3.3 0.8 5.2 0.8 3.3 0 6.7-0.7 10.1-1.5 3.2-0.7 6.5-1.5 9.5-1.5 0 0 0.2 0 0.2 0 5.9 0 10.1 4.1 10.2 10 0 4.7-3 8.9-6.3 12.8-3.1 3.6-6.8 6.8-10.8 10.3-9 7.7-18.3 15.7-18 27.5 0.2 6.8 4.1 12.8 7.8 18.6q0.9 1.4 1.8 2.8c5.3 8.4 6.8 21.6 3.7 31.4-2.1 7-6.3 11.9-12.1 14.4-1.6 0.7-3.3 1.2-5 1.6-3.1 0.8-6 1.6-8 3.9-1.9 2.2-1.8 5.7-1.5 8.8 1.1 10.9-9.7 19.2-18.9 24.2-1.5 0.8-3.2 1.3-4.9 1.7-1.3 0.4-2.6 0.7-3.8 1.3q-3.1 1.4-3.9 3.7c-0.6 1.8-0.2 4.2 1.2 7 1 1.8 2.6 2.3 4.8 1.7l0.7-0.1c1.4-0.4 2.8-0.8 4.2-0.8 1.9 0 3.4 0.7 4.9 2 1.6 1.4 2.5 3.6 3.4 5.7 0.4 0.9 0.7 1.8 1.2 2.6 1.2 2.3 3.1 4 5.1 5.9 1.1 1 2.2 2 3.2 3.1 0.9 1 1.7 2.3 2.5 3.9q0.1 0.3 0.1 0.5-0.4 4.4-0.7 8.8c0 0.3-0.1 0.6-0.4 0.8q-0.3 0.1-0.6 0.1zm-25.5-10.2h0.2c4.9 0 9.3 1 14.6 3.5q2 0.9 4.1 1.9 2.5 1.2 5.1 2.3 0.2 0.1 0.6 0.3 0.3-3.7 0.6-7.4-1-2-2.1-3.1c-0.9-1.1-2-2.1-3-3-2.1-1.9-4.2-3.9-5.6-6.4-0.5-0.9-0.9-1.8-1.3-2.8-0.8-1.9-1.6-3.9-2.8-5-1.2-1-2.3-1.5-3.6-1.5-1.1 0-2.4 0.3-3.7 0.7l-0.6 0.2c-3.2 0.8-5.8-0.2-7.1-2.8-1.8-3.3-2.2-6.2-1.4-8.5 0.7-2.1 2.4-3.8 5-5 1.3-0.6 2.7-0.9 4.1-1.3 1.6-0.5 3.1-0.9 4.5-1.6 8.6-4.7 18.8-12.4 17.8-22.2-0.3-3.5-0.4-7.5 1.9-10.2 2.4-2.9 5.8-3.8 9.1-4.6 1.6-0.4 3.2-0.9 4.7-1.5 5.3-2.3 9.1-6.8 11-13.2 2.9-9.3 1.5-21.8-3.5-29.7q-0.8-1.4-1.8-2.9c-3.9-5.9-7.9-12.1-8.1-19.5-0.4-12.8 9.3-21.1 18.7-29.1 3.9-3.4 7.6-6.6 10.5-10.1 3.1-3.6 5.9-7.5 5.9-11.5-0.1-4.8-3.4-8-8.2-8-3 0-6 0.7-9.3 1.4-3.4 0.8-7 1.6-10.5 1.6-2.2 0-4.1-0.3-5.9-1-3.6-1.4-5.7-4-6.7-8.4q-0.3-1.2-0.5-2.4c-0.3-1.6-0.6-3.3-1.1-4.8-1.1-2.9-3.5-3.7-6.6-4.6q-0.8-0.2-1.5-0.4c-3-0.8-5.9-1.6-8-4.6l-0.2-0.2c-1.3-1.9-3.4-4.7-1.8-7.5 1.3-2.3 4.8-2.5 7.2-2.6q0.5 0 0.9 0c5.4-0.5 11.1-1.3 16.7-4.1 3.3-1.7 6.5-3.7 9.6-5.7 5.5-3.4 11.2-7 17.9-8.9-3.3-3.7-8.2-5.1-13.1-5.9-0.8-0.2-1.4-0.8-1.5-1.6-0.2-0.8 0.2-1.7 0.9-2.1l1-0.6c2.5-1.4 5.2-2.9 7.4-4.8-21.2-7-43.4-10.6-66-10.6-1 1.3-1.8 3-2.8 5.5-1 2.3-2.6 5.6-5.6 7.3-3.9 2.2-7.1 2.5-11.2 0.8l-0.8-0.3c-2.4-1-5.8-2.3-8.6-2.3q-1.9 0-3.1 0.7c-1 0.6-1.8 1.3-2.7 2-1.5 1.1-3.1 2.3-5 3.1-1.2 0.6-2.8 0.9-4.9 0.9-1 0-2.1-0.1-3-0.2q-0.8 0-1.5 0-1.6-0.1-3.1-0.1c-9.1 0-15.9 2-21.9 6.4-4.1 4-6.9 8.3-8.6 13.1-2.3 6.4-6.2 10.8-13.7 15.2-2.9 1.6-5.8 3.1-8.6 4.6-11 5.7-21.4 11.1-26.1 23.6l-0.5 1.3c-2.1 5.7-4.1 11-9.2 15-1.3 1.1-2.7 2.1-4.1 3-5.2 3.7-10.2 7.2-10.3 14-0.1 2.2 0.5 4.3 1.2 6.5 0.6 1.8 1.1 3.7 1.3 5.7 0.3 3.6-1.6 6.5-3.3 9.2l-0.9 1.4c-1.6 2.5-4.9 7.9-3 10.6 1.5 2.2 4.1 3.8 6.6 5.3q0.1-0.2 0.3-0.4c2.4-4.2 5.7-9.9 10.4-9.9h0.4c4.7 0.3 9.2 2.8 13.6 5.2 1.8 1 3.5 2 5.2 2.7 5.2 2.4 7.2 5.4 7.1 10.8q0 0.7-0.1 1.3c-0.1 1.9-0.1 2 1.8 2.4 3.3 0.7 6.2 1.5 8.9 2.4 3.2 1.1 6.3 2.2 9.4 3.4l1.9 0.7c3.3-0.7 6.3-1.7 9-2.9 9.5-4.3 17.5-12 24.4-23.3 0.6-0.9 2-1.3 2.8-0.6l1.4 1c3.8 2.8 8.7 6.4 9.4 11.5 0.5 3-1.1 5.7-2.6 8-0.4 0.7-0.8 1.4-1.2 2.1-1.8 3.4-2.8 6.7-3 9.8-0.4 5.1 2.2 8.3 5.4 12.3l0.5 0.7c6.4 7.9 7.3 17.6 7.7 26 0.5 9.9 1 20.2 6.2 29.4 3 5.5 7.1 10.5 12.5 15.5q1.4 0.2 2.8 0.5c5.7 0.9 11.5 1.8 15.6 5.3 2.5 2.3 3 5.8 3.2 8.6 0 0.6 0 1.5-0.1 2.4q0 0.7 0 1.3l0.4 0.4q0.5 0.5 1 0.9 1.1 0 2.2 0 1.2 0 2.4 0z"/>
				<path id="&lt;Compound Path&gt;" fill-rule="evenodd" class="s4" d="m318.2 248.4c-2.5 0-4.5-1.7-6-5.3-0.6-1.4-0.9-3-1.2-4.5-0.3-1.4-0.5-2.8-1-4-0.6-1.4-2-2.5-3.2-3.6q-0.4-0.3-0.8-0.7c-3.6-3.1-5.2-7.5-4.9-13.2 0.5-1.9 1-4.2 1.8-6.4 2.6-8.1 9-18.1 16.7-20.9q0.6-0.2 1.1-0.2c4.1 0 6.7 8.1 8.9 16.3 0.4 1.2 0.6 2.1 0.8 2.6q0.5 1.4 1 2.8c1.9 5.4 4 10.9 2.8 16.6-1 4.2-8.8 20.5-16 20.5zm2.5-56.8q-0.2 0-0.4 0.1c-7.1 2.6-13.1 12-15.5 19.6-0.8 2.2-1.3 4.4-1.7 6.1-0.3 5 1 8.7 4.2 11.4q0.4 0.4 0.8 0.7c1.4 1.2 3 2.5 3.7 4.3 0.6 1.5 0.9 3 1.2 4.4 0.3 1.5 0.5 2.9 1.1 4.2q1.7 4 4.1 4c5.5 0 13-14.3 14-19 1.1-5.1-0.8-10.3-2.7-15.4q-0.5-1.4-1-2.8c-0.2-0.6-0.5-1.5-0.8-2.8-1.1-4-4-14.8-7-14.8z"/>
				<path id="&lt;Compound Path&gt;" fill-rule="evenodd" class="s4" d="m399.4 183q-1.2 0-2.4-0.6c-3-1.5-5.5-3.7-8-5.9l-0.4-0.4c-5.7-5-11.3-10.8-16.9-17.7-1.7-2-3.8-4.7-5.5-7.8-2.9-5.1-1.6-11.5 0-17.2q0.6-1.9 1.2-3.8c2.6-8.3 4.8-15.4 0-23.7-3.2-5.6-8-10.5-12.5-15.2-3.2-3.3-6.5-6.7-9.2-10.3-7.6-9.8-10-20.9-7.3-32.9 0-0.3 0.2-0.5 0.4-0.6 0.2-0.2 0.5-0.2 0.8-0.2q2.6 0.8 5.2 1.6 0.1 0.1 0.2 0.1c36.3 24.8 63.6 59.4 79.2 100.3 0.2 0.3 0 0.8-0.3 1.1-2.7 2.3-5.7 3.3-8.7 4.4-1.5 0.5-3 1.1-4.6 1.8-4.3 2-4.5 8.3-4.6 13.9-0.1 2-0.2 3.9-0.4 5.5-0.7 3.8-2.9 7.6-6.2 7.6zm-59.3-134c-2.3 11.1 0.1 21 7.2 30.2 2.7 3.5 5.9 6.9 9 10.1 4.7 4.8 9.5 9.8 12.9 15.6 5.2 9.1 2.8 16.6 0.1 25.3q-0.6 1.9-1.1 3.8c-1.6 5.2-2.8 11.2-0.2 15.7 1.6 2.8 3.6 5.5 5.2 7.4 5.6 6.9 11.1 12.6 16.7 17.5l0.4 0.4c2.4 2.1 4.8 4.3 7.6 5.6q0.8 0.4 1.5 0.4c2.3 0 3.8-3.6 4.2-6 0.2-1.4 0.3-3.2 0.4-5.2 0.1-5.8 0.4-13.1 5.8-15.6 1.6-0.8 3.2-1.4 4.8-1.9 2.7-0.9 5.2-1.8 7.5-3.6-15.5-40.1-42.5-74.2-78.1-98.5q-1.9-0.7-3.9-1.2z"/>
				<path id="&lt;Compound Path&gt;" fill-rule="evenodd" class="s4" d="m437.1 230.7c-0.3 0-0.6-0.2-0.8-0.4-3.1-4.4-5.9-9-8.2-12.8l-1.2-1.9c-2.4-4-4.9-8-6.1-12.5-1.4-5.3-0.6-11 0.2-16.6 0.4-2.5 0.7-4.9 0.9-7.2 0-0.4 0.2-0.7 0.4-0.8 0.3-0.2 0.7-0.2 1-0.1 3.6 1.7 7.1 4 11.1 7.4q0.3 0.2 0.3 0.6c2.3 12.5 3.5 25.4 3.5 38.3q0 2.5-0.1 5c0 0.4-0.3 0.8-0.7 0.9q-0.1 0.1-0.3 0.1zm-13.4-49.8c-0.1 2-0.4 4-0.7 5.9-0.8 5.4-1.6 10.9-0.3 15.8 1.2 4.2 3.6 8.1 5.9 11.9l1.2 1.9c1.9 3.1 4 6.6 6.4 10.1q0-0.9 0-1.8c0-12.6-1.1-25.3-3.4-37.6-3.2-2.7-6.1-4.7-9.1-6.2z"/>
				<path id="&lt;Compound Path&gt;" fill-rule="evenodd" class="s4" d="m65.2 365.6c-0.3 0-0.5-0.1-0.7-0.4-34.1-38.8-52.9-88.8-52.9-140.5 0-3.8 0.1-7.7 0.3-11.7 0-0.3 0.2-0.6 0.5-0.8 2-1 4.1-1 6.2 0.2 3.4 2 5.2 6.4 6.7 10q0.4 0.8 0.7 1.6 0.4 0.8 0.7 1.7c1.1 2.5 2.2 5.1 3.8 7.3 2.8 3.8 6.1 6.8 9.6 10.1l1.6 1.4c5.7 5.2 8.7 11.1 9.8 19 0.2 1.6 0.4 3.3 0.5 4.9 0.4 4.3 0.8 8.4 2.3 12.4 2.4 6.4 6.5 12.4 10.5 18.1 1.6 2.3 3.2 4.7 4.7 7.1 2.5 3.9 5.5 9.2 7.1 14.9 1.9 6.8-0.9 12.3-3.5 17.2-4.4 8.5-5.6 17.3-6.9 26.6 0 0.4-0.3 0.7-0.7 0.8q-0.1 0.1-0.3 0.1zm-51.3-151.9c-0.2 3.7-0.3 7.4-0.3 11 0 50.5 18.1 99.3 50.9 137.6 1.3-8.7 2.6-17 6.9-25.1 2.9-5.7 4.9-10.1 3.3-15.7-1.5-5.6-4.5-10.6-6.9-14.4-1.4-2.4-3.1-4.8-4.7-7.1-4-5.8-8.1-11.8-10.7-18.5-1.6-4.2-2-8.6-2.4-12.9-0.1-1.6-0.3-3.3-0.5-4.9-1-7.4-3.8-12.8-9.1-17.7l-1.6-1.5c-3.5-3.1-7-6.3-9.9-10.3-1.7-2.4-2.9-5.1-4-7.7q-0.4-0.9-0.7-1.7-0.4-0.8-0.7-1.6c-1.4-3.3-3.1-7.4-5.9-9.1q-1.9-1.1-3.7-0.4z"/>
				<path id="&lt;Compound Path&gt;" fill-rule="evenodd" class="s4" d="m83.9 300.6q-0.2 0-0.3-0.1c-3.3-1.1-7.4-2.8-10.7-5.6-0.4-0.3-0.5-0.8-0.3-1.2-3.7-3.5-5-6.6-3.8-9.2 0.4-0.9 1.3-1.9 3.3-1.9 2 0 4.8 1 8.2 3.2 3.6 2.2 4 6.6 4.3 10.5 0.1 1.1 0.2 2.2 0.3 3.2 0.1 0.3-0.1 0.7-0.4 0.9q-0.2 0.2-0.6 0.2zm-9.3-6.9c2.5 2 5.5 3.4 8.1 4.4q0-0.8-0.1-1.6c-0.3-3.6-0.6-7.4-3.3-9-3.9-2.4-6.1-2.9-7.2-2.9-1 0-1.3 0.4-1.5 0.7-0.8 1.8 0.4 4.2 3.4 7.1 0.4 0.3 0.6 0.8 0.6 1.3z"/>
				<path id="&lt;Compound Path&gt;" fill-rule="evenodd" class="s4" d="m167.1 230.3c-2.9 0-6.7-2.1-7.8-3.8-1.5-2.3-0.8-5.6-0.2-8.3q0.2-0.8 0.3-1.5c-6.3-1.8-7.8-6.7-8.3-10.8-0.1-0.3 0-0.6 0.2-0.8 0.3-0.2 0.5-0.4 0.9-0.3 1.1 0.1 2.2 0.1 3.4 0.1 2.2 0 4.6 0 6.9 0.7q0.2 0.1 0.4 0.2c2.9 1.8 5.1 4.4 6.4 7.5 1.6 4 2.3 9.6 1.7 13.6-0.3 2.2-1.7 3.4-3.9 3.4zm-13.8-23.4c0.8 4.4 2.8 6.7 6.7 7.8 1 0.3 1.6 1.3 1.4 2.4q-0.2 0.7-0.3 1.5c-0.5 2.2-1.2 5.2-0.1 6.8 0.7 1.1 3.8 2.9 6.1 2.9 1.2 0 1.8-0.5 2-1.7 0.5-3.7-0.2-8.8-1.7-12.5-1.1-2.7-3-4.9-5.4-6.5q-0.1 0-0.1 0c-2.1-0.7-4.1-0.7-6.3-0.7q-1.2 0-2.3 0z"/>
				<path id="&lt;Compound Path&gt;" fill-rule="evenodd" class="s4" d="m309 158.5c-0.1 0-0.2 0-0.3 0-1.7-0.3-3.8-1.9-3.4-7.4-2.9-0.1-5.5-0.7-7.9-2q-0.3-0.1-0.4-0.4-0.8-1.4-1.3-2.9-0.6-1.9 0.2-3c0.8-1.1 2.3-1.2 3.9-1.3h0.7c3.4-0.2 6.1 1.5 8.4 5 1 1.4 1.8 3 2.6 4.6q0.7 1.5 1.5 2.9 0.5 0.8 1 1.6c0.3 0.4 0.3 0.9 0.1 1.3-0.8 1.4-5.1 1.6-5.1 1.6zm-10.4-11c2 1 4.2 1.5 6.7 1.6 0.5 0.1 1.1 0.3 1.5 0.7 0.3 0.4 0.5 0.9 0.5 1.4-0.1 1.8 0 4.9 1.7 5.3 0.6 0 2.1-0.2 2.9-0.5q-0.3-0.5-0.6-1-0.8-1.5-1.6-3c-0.8-1.5-1.5-3-2.5-4.4-1.8-2.8-3.7-4.1-6.2-4.1h-1.2c-0.9 0.1-2.1 0.1-2.3 0.4-0.1 0.2-0.1 0.6 0.1 1.3q0.4 1.2 1 2.3z"/>
				<path id="&lt;Compound Path&gt;" fill-rule="evenodd" class="s4" d="m72.9 261.4q-0.3 0-0.5-0.1c-1.4-0.9-2.8-1.6-4.4-2.4-4.5-2.5-9.2-5-12.2-9.3-2-3-2.3-6.3-2.7-9.6-0.1-1.3-0.2-2.7-0.5-4-0.1-0.4 0.1-0.8 0.4-1 0.3-0.2 0.8-0.3 1.1 0 5 3 10.9 4.5 15.9 5.6l0.7 0.2q2.8 0.6 5.6 1.2c2.4 0.6 1.9 3.7 1.7 5.4q-0.1 0.4-0.1 0.7c-0.4 4.1-1.8 8.6-4.1 12.8-0.2 0.2-0.4 0.4-0.7 0.5q-0.1 0-0.2 0zm-18-23.7q0.1 1.1 0.2 2.1c0.4 3.1 0.7 6.1 2.4 8.6 2.6 4 7.1 6.4 11.5 8.7 1.1 0.6 2.3 1.2 3.5 1.9 1.9-3.7 3.1-7.5 3.4-11.1q0-0.3 0.1-0.8c0.1-0.8 0.4-3-0.2-3.1q-2.7-0.7-5.5-1.3l-0.7-0.1c-4.6-1.1-9.9-2.4-14.7-4.9z"/>
			</g>
			<g id="&lt;Group&gt;" style="opacity: .6">
				<g id="&lt;Group&gt;">
					<path id="&lt;Path&gt;" class="s5" d="m394.8 197.2c-18.6-8-34.3-21.3-49.7-34.2-14.2-12-28.4-16.6-46.8-17.7-0.7 0-1.9 1.4-0.8 1.6 20.7 4.1 34.7 13.3 50.9 26.5 13.7 11.2 28.9 19.1 45.7 24.7 0.4 0.1 1.2-0.7 0.7-0.9z"/>
					<path id="&lt;Path&gt;" class="s5" d="m351.4 321.1c-9.9-4.6-20.1-8.1-29.7-13.2-10-5.2-18.1-12.6-27.2-19.1-18.7-13.4-37.8-24.3-60.3-29.7-0.4-0.1-1.2 0.8-0.7 1 21.4 7.4 39 20.5 57.2 33.4 9.5 6.7 17.6 13.1 28.3 17.7 10.3 4.4 21 7.2 31.5 11 0.5 0.2 1.5-0.8 0.9-1.1z"/>
					<path id="&lt;Path&gt;" class="s6" d="m81.6 381.3c11.6 0.3 23.5-1.3 35-0.6 10.2 0.7 19.8 4.1 29.8 5.9 10.6 1.9 21.6 1.4 32.3 1.9 19.5 0.8 38.1 3.5 55.3 13.2 15.6 8.7 29.9 19.5 45.5 28.1 3.6-0.9 7.1-1.9 10.6-3.1q-11.1-8.3-23.2-15.2c-12.1-6.9-22.9-16-35-22.8-25.8-14.4-56.5-14.3-85.1-17.5-27.1-3-50.3-16.7-71.2-33.4-11.6-9.3-22.3-19.3-32.7-29.8-5.4-5.5-10.9-12.7-17.8-16.3q-1-0.5-2-0.9c11.5 35.1 31.9 66.1 58.5 90.5z"/>
					<path id="&lt;Path&gt;" class="s6" d="m114 405.7c22.9 14 48.6 23.9 76.1 28.4-6.7-4-13.2-8.5-19.5-12.9-10.4-7.3-20.3-13.8-33.3-14.4-7.8-0.4-15.7 0.1-23.3-1.1z"/>
					<path id="&lt;Path&gt;" class="s6" d="m310.9 392.7c-4-2.7-15.6-10.7-9.5-16.6 4.2-4.1 11.4-5.5 17-6.4 7.5-1.2 15.1-1.4 22.7-1.9 14.3-0.9 28.8-4.4 43.1-2.9q1.8-2.1 3.6-4.2-3 0.3-6 0.5c-12.8 0.9-24.8 0.1-37.3-3.1-13.5-3.4-26.6-5.8-40.6-5.9-12.2-0.2-23.2 5.5-35.3 6.3-6 0.4-28.8-2.1-21.8 10.4 2.3 4.2 5.9 7.4 9.7 10.3 4.8 3.8 9.5 7.6 14.6 11 9.9 6.5 21.1 11.8 30.3 19.3 2.9 2.4 6.3 6 10 9 8.1-3.6 15.9-7.7 23.4-12.3-7.4-5.1-16.4-8.4-23.9-13.5z"/>
					<path id="&lt;Path&gt;" class="s6" d="m363 377.2c-6.3 0.1-12.7 0.3-19 0.8-3.2 0.3-9.6 0-12.1 2.8-3.8 4.3 8.9 11.6 17.7 15.6 8.1-5.9 15.7-12.3 22.9-19.2q-4.8-0.1-9.5 0z"/>
					<path id="&lt;Path&gt;" class="s6" d="m100.9 138c-4.5-14.2-18.2-26.9-32.8-29.5-6.4-1.2-13-1.5-19.4-2.3q-2.3 3.4-4.5 7c3.9 1.6 7.6 3.4 11.3 5.2 4.3 2.1 8.7 3.9 11.9 7.5 3.3 3.7 6 7.7 9.7 11 0.3 0.3 0.4 0.9 0.2 1.2-7.3 10-22.5 11.9-33.5 15.3-6.2 2-13.4 4.6-20.1 3.6q-1 2.9-1.9 5.8c13.9 2.6 28.2-2.7 41.1-8.3 6.7-2.9 13.3-6 20.1-8.6 3.5-1.3 6.9-2.6 10.6-3.2 2.4-0.3 8.7-0.4 7.3-4.7z"/>
					<path id="&lt;Path&gt;" class="s6" d="m402.8 146.5c-3.6 2.7-2.4 6.6 0.3 9.4 6.6 6.7 17 11.3 26.8 13.7-2.6-9.7-5.9-19.1-9.7-28.2-2.6 0.9-5.3 1.4-8 2-3.1 0.6-6.8 1.2-9.4 3.1z"/>
					<path id="&lt;Path&gt;" class="s6" d="m427 185.1c-7.8-2.7-15.2-6.5-22.3-10.9-7.4-4.6-14.6-9.8-22.4-13.7-3.4-1.8-6.8-3.2-10.4-4.4-1.7-0.6-3.7-1.2-5.1-2.4-2.7-2.4-2.5-5.9 0.7-7.6 4.5-2.4 10.1-0.5 14.7-2.4 10.7-4.2 20.3-13.8 31.6-15.9q-2.6-5-5.4-10c-9.6 1-17.8 4.8-26.5 9.4-8.5 4.5-18.2 5.2-27.7 5.4-3.8 0-9.2 0-11.4 3.8-1.3 2.1-0.6 4.2 0.8 6.1 3.4 4.5 8.7 7.7 13.6 10.5 10.5 5.9 21.7 10.1 32 16.5 15.5 9.7 29.3 23.6 46.5 30q-0.8-6.3-1.9-12.5c-2.3-0.6-4.5-1.1-6.8-1.9z"/>
				</g>
				<g id="&lt;Group&gt;" style="opacity: .5;mix-blend-mode: color-dodge">
					<path id="&lt;Path&gt;" class="s6" d="m380 344.8c-9.5-2.8-18.4-7.1-27.2-11.5-3.6-1.8-7.3-3.7-11-5.4-1.2-0.9-2.4-1.7-3.8-2.4-2.6-1.3-5.2-1.8-7.9-2.4-2.1-0.7-4.1-1.4-6.2-1.9q-0.2 0-0.5-0.1c-14.7-5.7-25.4-18.3-39.4-25.4q-0.3-0.2-0.6-0.4c-6.2-5.4-14.8-9.2-21.1-12.1-13.2-6.1-24.3-14.5-37.1-21.1-11.4-5.9-22.2-7.4-34.8-6.2-6.9 0.6-13.9 0.9-20.8 0.5-2.9-0.2-7.3-0.1-9.5 2.1-4.7 4.5-2.3 7.7 2.5 11.3 10.3 7.6 16 21.1 25.7 29.8 8 7.2 18.2 12.8 28.7 15.2 12.2 2.8 27.2 6.2 39.5 2.8 20.8-5.7-12.1-28.4-18.6-32.2-10-5.8-23.6-12.5-34.9-14.7-5.3-1.1-14.5-4.1-17.4 2.7-4 9.4 11.5 18.4 17.5 22.9 8.7 6.4 17.8 9.4 28.4 10.1 2.4 0.2 12-0.8 9.8-5.7-4.3-9.8-21.7-12-30.6-14.7-1.8-0.5-4.8 3-2.9 3.6 9.7 2.9 19.7 5 27.6 11.8 0.6 0.5-5.3-0.3-6.5-0.5-4.7-0.7-8.9-2.3-13-4.4-8.3-4.3-20.1-13.4-24.1-22 1 2.1 11.6 2.9 13.9 3.7 6.9 2.4 13.6 5.2 20.3 8 10.2 4.2 19.5 10.7 27 18.7q1.8 2.1 3.5 4.3c4.4 5.5-9.5 4.6-11 4.5-6.5-0.5-13-1.4-19.4-2.4-13.7-2.2-25.5-8.5-35.7-17.7-8.6-7.7-13.2-19.3-22-26.6q-1-0.7-1.9-1.3c-5.2-3.8-0.6-4.7 3.3-4.5 4.3 0.2 8.2-0.1 12.4-0.4 6.7-0.4 13.5-1.4 20.1-0.9 7.9 0.7 15.6 4.4 22.6 8 10.5 5.4 19.7 13 30.5 18.3 0.9 0.5 2.1 1.1 3.5 1.8 4.5 2.9 8.9 6 13.3 9.2 2.6 1.9 5.2 3.7 7.7 5.6 0.9 1.2 2.2 2.7 3.4 4.5 1.9 3.8 1.7 7.8-2.2 11.6-8.2 8.2-19.3 10.1-29.2 15.4-12.8 6.8-25.5 13.8-38.9 19.3-13.5 5.4-26.7 7.4-40.9 9.6-16.8 2.6-29.5 0.9-44.2-7.9-11.7-7-23.1-14.5-33.7-23.1-5.7-4.6-10.9-9.8-16.7-14.4-4.6-3.7-9.4-7.3-13.9-11.2q-1.2-0.9-2.3-1.9c2.9 1.3 5.9 2.3 9.2 3 32.5 6.3 66.6-25.1 97.2-0.3 5.8 4.6 10.6 11.7 13.9 18.2 6 11.7-3 16.8-12.7 19-14.9 3.4-40.2-1.4-50.1-13.9-4.4-5.5-1.4-16.4 6.5-17.6 5-0.7 10.6 0.3 15.6 0.8 11.2 1.1 20 7.4 24 18 2.9 7.6-20.7 0.8-21.7 0.4 0.3 0.2-10.2-5.1-5.6-5.2 4-0.1 8.9 2.8 12.7 3.8 1.2 0.3 3.1-1.9 1.9-2.2-4.8-1.4-14.9-7.5-19.8-3.2-3.5 3-0.3 6.9 3 8.8 7 4.1 16.6 8.8 25.1 7.8 5.2-0.6 12.9-4.4 10.7-11.1-3.5-10.3-11.6-15.5-21.7-18.2-8.3-2.3-19.6-3.7-28-1-5.3 1.8-7 9.4-7.2 14.1-0.5 9.7 10.7 15 17.7 18.6 16 8.3 39.2 11.6 53.4-2.2 17.8-17.3-15.3-47.5-29.9-54.1-14.5-6.4-30.6-1.2-45.6 0.8-15.4 2.1-31.5 2.5-46.4-2.9-18.6-6.8-27-22.2-37.2-38.1-3.8-6-8.4-11.2-13.6-15.8 4 113.7 97.4 204.8 212.2 204.8 71.9 0 135.4-35.8 173.8-90.5-6.2 0.6-12.3 0.1-18.7-1.7z"/>
					<path id="&lt;Path&gt;" class="s6" d="m400.4 105.2q-1.3-0.1-2.5-0.1c-10.2-0.4-18.6 3-28.3 5.4-17.3 4.3-35.8 10.3-53.8 9.1-8.9-0.6-17.8-2-26.5-0.2-7 1.4-13.6 3.6-20.4 5.5-10.3 2.9-22 5.8-32.1 1.5-5.3-0.5-10.5-1.6-15.5-3.3q-4.3-1.9-8.7-3.7c-0.4-0.3-0.9-0.5-1.3-0.7q-0.2-0.1-0.4 0c-7.7-3.1-15.5-5.9-23.8-8.4-13.4-4.1-26.7-8.9-39.2-15.3-3.7-1.9-6.9-4.4-9.9-7.3-1.3-1.2-10.5-10.5 0.9-7 6.3 2 11.8 5.9 18.4 7.3 26.1 5.6 53.9 1.7 75.4 21 5.6 5-7 3.1-8.9 2.9-4.5-0.6-9.2-1.9-13.5-3-7.2-2-14.4-4.3-21.6-6.5-3.2-1-5.9-1.9-8.7-3.6-0.7-0.4 10.7-0.5 12.1-0.2 7.9 1.4 18.2 1.4 24.2 7.4 0.8 0.8 2.7-0.9 1.9-1.7-5.5-5.8-14.5-6.4-21.9-7.8-6.9-1.3-13.6-3.4-20 0.6-0.5 0.3-1.5 1.2-1.1 1.9 3 5.4 13.7 6.6 18.9 8.2 10.3 3.2 20.6 6.8 31.3 8.4 3.4 0.5 10.5 0.8 12.5-2.9 2.6-4.6-3.1-8.2-6.6-10.7-16.3-11.5-37.8-13.9-57.3-15.2-12.2-0.8-22-3.6-33.2-8.4-4-1.7-8.3-1.8-11.2 1.6-0.2 0.3-0.5 0.8-0.4 1.2 3.6 9 13.8 14.8 22.2 18.7 13.2 6 26.8 10.8 40.6 15.4 13.6 4.6 25.8 11.1 38.9 16.8 6.7 2.9 12.9 4.3 19.4 4.4 5.7 1.5 13.1 0.7 17.8 0.6 19-0.1 42.2-6.7 59.2 4.9 21.5 14.7 42 30.8 64 44.8 4.4 2.9 30.1 19.9 45.3 22.4-2.7-38.4-15.7-74-36.2-104z"/>
					<path id="&lt;Path&gt;" class="s6" d="m248.9 169.9c-9.2-7.8-22.9-9.2-33.9-13.7-12.6-5.1-22.1-17.2-35.6-20.5-7.6-1.8-19.4-4.1-26.7 0.3-7.8 4.8-3.1 12.1 0.7 17.8 7 10.5 17.8 16.2 28.1 22.9 12 7.8 25.8 13 39.8 16.1 1.8 0.5 41 8.4 33-3.6-3.9-5.8-14.7-9.2-20.7-12-4.5-2.2-9.1-3.5-13.9-4.8-8-2-13.8-6-20.5-10.6-3.9-2.8-15.3-12-20.7-7.3-7.2 6.4 8.1 14.9 12.5 16.8 1.1 0.5 3.2-1.6 1.9-2.3q-3.9-1.8-6.6-5.3-0.9-1.3-1.8-2.5-0.5-1.9-1-3c5.1 1.5 10.9 6 14.6 8.8 8.5 6.3 17.3 8.4 27.2 11.4 6 1.8 12.1 5.2 17.4 8.3 2.8 1.6 5.6 3.4 7.8 5.8-1.4-1.6-11.5-2-13.4-2.4-13.1-2.6-25.6-6.1-37.4-12.4-11.8-6.3-24.7-12.4-34-22-3.5-3.7-6.5-7.6-9.3-11.8-5-7.3 15.2-5.1 17.8-4.6 13.1 2.4 23.2 13.2 34.7 19.4 10.7 5.8 23.3 6.7 34.1 12.8 5.5 3.1 9.7 8.5 13.4 13.5 3.8 5.1 13.9 19.8 0.9 20.1-8.8 0.2-18.3-3-26.7-4.8-12.8-2.8-26.6-1.8-39-6.1-10.8-3.7-23.3-10-32.1-17.3-8.4-6.9-14.1-15.2-23.6-21.1-2.8-1.8-5.4-3.7-7.8-5.8q-0.1-0.1-0.2-0.1c-7.3-6.2-13.1-13.6-19.1-21.6-3.6-4.7-7.1-9.6-10.7-14.2-2.5-4.4-5.3-8.6-8.9-11.8-9-8-21-6.2-32.2-7.5-18.2 23.4-31.5 50.7-38.6 80.4 3 1.1 6.2 1.7 9 2 8.6 0.8 15.9-2.6 23.2-6.9 13.6-8 26.8-15.5 43.3-13.4 15.2 1.9 28.8 7.1 41.4 16 9.2 6.6 19.9 17.7 31.7 20.6 8 4.7 17.5 8.3 25.9 9.9 6.6 1.3 13.7 0.5 20.4 0.7 7.2 0.3 14.3 1.6 21.3 2.8 7.9 1.4 17.6 4 25.6 1.7 20.2-5.8-3.6-32.1-11.3-38.7z"/>
				</g>
			</g>
		</g>
	</g>
</svg>