<svg version="1.2" xmlns="http://www.w3.org/2000/svg" viewBox="0 0 1122 1122" width="512" height="512">
	<title>26603</title>
	<defs>
		<linearGradient id="g1" x2="1" gradientUnits="userSpaceOnUse" gradientTransform="matrix(1096.262,1096.262,-1096.262,1096.262,579,-543)">
			<stop offset="0" stop-color="#414a64"/>
			<stop offset=".995" stop-color="#a1e1fb"/>
		</linearGradient>
	</defs>
	<style>
		.s0 { fill: url(#g1) } 
		.s1 { opacity: .1;fill: #ffffff } 
		.s2 { fill: #988e55 } 
		.s3 { fill: #ccbe71 } 
		.s4 { opacity: .7;fill: #ffffff } 
		.s5 { fill: #786f42 } 
		.s6 { fill: #e5d678 } 
	</style>
	<g id="_Artboards_">
	</g>
	<g id="Background">
		<path id="&lt;Path&gt;" class="s0" d="m1122 1122h-1122v-1122h1122z"/>
	</g>
	<g id="Object">
		<g id="&lt;Group&gt;">
			<g id="&lt;Group&gt;">
				<path id="&lt;Path&gt;" class="s1" d="m817.7 409.4c-7.2-13.9-15.4-27.2-24.6-39.7-11-14.9-23.4-28.7-37-41.2-51.3-47.3-119.8-76.2-195.1-76.2-159.1 0-288.1 129-288.1 288.1 0 31.4 5.1 61.7 14.4 90 3.4 10.4 7.4 20.6 12 30.4 5.6 12.2 12 23.9 19.2 35.1 51.2 79.7 140.7 132.6 242.5 132.6 159.1 0 288.1-129 288.1-288.1 0-47.2-11.3-91.7-31.4-131z"/>
				<path id="&lt;Path&gt;" class="s2" d="m792.9 422c-6.4-12.6-13.8-24.5-22.2-35.8-9.9-13.5-21.1-26-33.4-37.3 4.6 7.2 9 14.6 12.9 22.2 18.1 35.5 28.4 75.8 28.4 118.4 0 143.8-116.6 260.3-260.4 260.3-68 0-130-26.1-176.4-68.9 46.3 72.1 127.2 119.8 219.2 119.8 143.8 0 260.3-116.5 260.3-260.3 0-42.6-10.2-82.9-28.4-118.4z"/>
				<path id="&lt;Path&gt;" class="s3" d="m778.6 489.5c0-42.6-10.3-82.9-28.4-118.4-3.9-7.6-8.3-15-12.9-22.2-46.4-42.7-108.3-68.9-176.3-68.9-143.8 0-260.3 116.6-260.3 260.4 0 28.4 4.5 55.7 12.9 81.3 3.1 9.5 6.8 18.6 10.9 27.5 5 11 10.9 21.6 17.3 31.7 46.4 42.8 108.4 68.9 176.4 68.9 143.8 0 260.4-116.5 260.4-260.3z"/>
				<path id="&lt;Path&gt;" class="s4" d="m423.7 361.6q13-9.2 25.9-18.3c19.2-13.6 40.8-27.9 64.2-25.2 10.3 1.2 21.3 7.3 23.1 17.5 1 5.9-1.4 11.8-4.3 17.1-9.1 16.6-24.5 29.6-42.4 36-6 2.2-12.2 3.6-18 6.3-7.2 3.3-13.4 8.6-19.9 13.3-14.4 10.3-52.8 35.9-66.4 12.6-13.7-23.3 22.4-48.4 37.8-59.3z"/>
				<path id="&lt;Path&gt;" class="s5" d="m523.9 677c0-29.2 21.9-53.3 50.1-56.9-2.4-0.3-4.9-0.6-7.4-0.6-31.7 0-57.4 25.8-57.4 57.5 0 31.8 25.7 57.5 57.4 57.5 2.5 0 5-0.2 7.4-0.5-28.2-3.6-50.1-27.7-50.1-57z"/>
				<path id="&lt;Path&gt;" class="s6" d="m624.1 677c0-29.2-21.8-53.3-50.1-56.9-28.2 3.6-50.1 27.7-50.1 56.9 0 29.3 21.9 53.4 50.1 57 28.3-3.6 50.1-27.7 50.1-57z"/>
				<path id="&lt;Path&gt;" class="s5" d="m600 360.7c0-16.4 12.3-30 28.3-32.1-1.4-0.2-2.8-0.3-4.2-0.3-17.9 0-32.4 14.5-32.4 32.4 0 18 14.5 32.5 32.4 32.5 1.4 0 2.8-0.1 4.2-0.3-16-2.1-28.3-15.7-28.3-32.2z"/>
				<path id="&lt;Path&gt;" class="s6" d="m656.5 360.7c0-16.4-12.3-30-28.2-32.1-16 2.1-28.3 15.7-28.3 32.1 0 16.5 12.3 30.1 28.3 32.2 15.9-2.1 28.2-15.7 28.2-32.2z"/>
				<path id="&lt;Path&gt;" class="s5" d="m672.6 430.4c0-10.6 8-19.4 18.2-20.7q-1.3-0.2-2.6-0.2c-11.6 0-20.9 9.4-20.9 20.9 0 11.5 9.3 20.9 20.9 20.9q1.3 0 2.6-0.2c-10.2-1.3-18.2-10.1-18.2-20.7z"/>
				<path id="&lt;Path&gt;" class="s6" d="m709.1 430.4c0-10.6-8-19.4-18.3-20.7-10.2 1.3-18.2 10.1-18.2 20.7 0 10.6 8 19.4 18.2 20.7 10.3-1.3 18.3-10.1 18.3-20.7z"/>
				<path id="&lt;Path&gt;" class="s5" d="m369 629.4c-6.5-18.5-0.3-37.7 13.9-45.2-1.4 0.3-2.7 0.6-4.1 1-16.7 5.9-24.6 26.9-17.6 46.9 7 20.1 26.2 31.6 43 25.7 1.3-0.5 2.6-1 3.8-1.7-15.8 2.9-32.6-8.2-39-26.7z"/>
				<path id="&lt;Path&gt;" class="s6" d="m421.9 610.9c-6.5-18.4-23.3-29.6-39-26.7-14.2 7.5-20.4 26.7-13.9 45.2 6.4 18.5 23.2 29.6 39 26.7 14.1-7.5 20.3-26.7 13.9-45.2z"/>
				<path id="&lt;Path&gt;" class="s5" d="m393.8 553.9c-1.7-4.8 0.6-10.1 5.3-12.4q-0.7 0.2-1.3 0.4c-5.4 1.9-8.4 7.7-6.5 12.9 1.8 5.3 7.7 8 13.1 6.1q0.6-0.2 1.2-0.5c-5 1-10.1-1.6-11.8-6.5z"/>
				<path id="&lt;Path&gt;" class="s6" d="m410.9 548c-1.7-4.9-6.8-7.5-11.8-6.5-4.7 2.3-7 7.6-5.3 12.4 1.7 4.9 6.8 7.5 11.8 6.5 4.6-2.3 7-7.6 5.3-12.4z"/>
				<path id="&lt;Path&gt;" class="s5" d="m660.1 662.6c-1.9-8.1 2.6-16.1 10.1-19q-1 0.1-2 0.4c-8.8 2-14.2 10.8-12.2 19.5 2.1 8.8 10.9 14.2 19.6 12.2q1-0.3 2-0.7c-8 0.9-15.6-4.4-17.5-12.4z"/>
				<path id="&lt;Path&gt;" class="s6" d="m687.7 656.1c-1.9-8.1-9.4-13.3-17.5-12.5-7.5 2.9-12 10.9-10.1 19 1.9 8 9.5 13.3 17.5 12.4 7.6-2.8 12-10.8 10.1-18.9z"/>
				<path id="&lt;Path&gt;" class="s5" d="m595.1 452.4c-0.7-3.3 1.1-6.6 4.2-7.8q-0.4 0-0.8 0.1c-3.6 0.9-5.9 4.5-5 8.1 0.8 3.6 4.4 5.9 8.1 5q0.4-0.1 0.8-0.2c-3.3 0.3-6.5-1.8-7.3-5.2z"/>
				<path id="&lt;Path&gt;" class="s6" d="m606.6 449.7c-0.8-3.3-4-5.4-7.3-5.1-3.1 1.2-4.9 4.5-4.2 7.8 0.8 3.4 4 5.5 7.3 5.2 3.1-1.2 4.9-4.5 4.2-7.9z"/>
				<path id="&lt;Path&gt;" class="s5" d="m546.6 359.4c0.8-3.4 4-5.5 7.3-5.1q-0.4-0.2-0.8-0.3c-3.6-0.9-7.3 1.4-8.1 5-0.9 3.6 1.3 7.2 4.9 8.1q0.5 0.1 0.9 0.1c-3.1-1.2-5-4.5-4.2-7.8z"/>
				<path id="&lt;Path&gt;" class="s6" d="m558.1 362.1c0.8-3.3-1.1-6.6-4.2-7.8-3.3-0.4-6.5 1.7-7.3 5.1-0.8 3.3 1.1 6.6 4.2 7.8 3.3 0.4 6.5-1.7 7.3-5.1z"/>
				<path id="&lt;Path&gt;" class="s5" d="m703 366.1c0.8-3.4 4-5.5 7.3-5.1q-0.4-0.2-0.9-0.3c-3.6-0.9-7.2 1.4-8.1 5-0.8 3.6 1.4 7.2 5 8.1q0.4 0.1 0.9 0.1c-3.2-1.2-5-4.5-4.2-7.8z"/>
				<path id="&lt;Path&gt;" class="s6" d="m714.4 368.8c0.8-3.3-1-6.7-4.1-7.8-3.3-0.4-6.5 1.7-7.3 5.1-0.8 3.3 1 6.6 4.2 7.8 3.3 0.4 6.4-1.8 7.2-5.1z"/>
				<path id="&lt;Path&gt;" class="s5" d="m448.4 701.2c-0.8-3.3 1-6.6 4.2-7.8q-0.5 0-0.9 0.1c-3.6 0.9-5.9 4.5-5 8.1 0.8 3.6 4.5 5.9 8.1 5q0.4-0.1 0.8-0.2c-3.3 0.3-6.4-1.8-7.2-5.2z"/>
				<path id="&lt;Path&gt;" class="s6" d="m459.8 698.5c-0.8-3.3-3.9-5.5-7.2-5.1-3.2 1.2-5 4.5-4.2 7.8 0.8 3.4 3.9 5.5 7.2 5.2 3.1-1.2 5-4.5 4.2-7.9z"/>
			</g>
		</g>
	</g>
</svg>