<svg version="1.2" xmlns="http://www.w3.org/2000/svg" viewBox="0 0 1122 1122" width="512" height="512">
	<title>2920819_26606</title>
	<defs>
		<linearGradient id="g1" x2="1" gradientUnits="userSpaceOnUse" gradientTransform="matrix(1096.262,1096.262,-1096.262,1096.262,579,-543)">
			<stop offset="0" stop-color="#414a64"/>
			<stop offset=".995" stop-color="#a1e1fb"/>
		</linearGradient>
	</defs>
	<style>
		.s0 { fill: url(#g1) } 
		.s1 { fill: #f1ebeb } 
		.s2 { fill: #af9f8d } 
		.s3 { fill: #d9c7b1 } 
		.s4 { opacity: .1;fill: #ffffff } 
		.s5 { opacity: .7;fill: #ffffff } 
	</style>
	<g id="_Artboards_">
	</g>
	<g id="Background">
		<path id="&lt;Path&gt;" class="s0" d="m1122 1122h-1122v-1122h1122z"/>
	</g>
	<g id="Object">
		<g id="&lt;Group&gt;">
			<g id="&lt;Group&gt;">
				<path id="&lt;Path&gt;" class="s1" d="m727 339.9c-10.4-9.8-21.6-18.6-33.5-26.5-10-6.7-20.5-12.6-31.4-17.9-10.3-5-20.9-9.3-31.8-12.9-54.3-18.1-114.9-18.7-172.9 2.4-136.8 49.7-207.4 200.8-157.7 337.6 9.8 27 23.6 51.4 40.5 72.9 6.2 7.9 12.8 15.3 19.8 22.4 8.7 8.8 18 16.9 27.7 24.3 13 9.8 26.8 18.4 41.2 25.7 62.6 31.5 137.4 38.1 208.4 12.3 136.8-49.7 207.4-200.8 157.7-337.6-14.8-40.5-38.4-75.2-68-102.7z"/>
				<path id="&lt;Path&gt;" class="s2" d="m295.6 455c0 0 236.5 25.3 397.9-141.6 0 0-92-64.3-226.4-22.3-134.3 42-171.5 163.9-171.5 163.9z"/>
				<path id="&lt;Path&gt;" class="s2" d="m288.4 568.9c0 0 236 42.3 480.8-174.7 0 0 54.1 79.6 37.4 185.5 0 0-206.4 184.8-436.6 147.8 0 0-72.3-59.7-81.6-158.6z"/>
				<path id="&lt;Path&gt;" class="s3" d="m295.6 455c0 0 222 2.6 397.9-141.6 0 0-95.1-72.8-229.5-30.8-134.3 42-168.4 172.4-168.4 172.4z"/>
				<path id="&lt;Path&gt;" class="s3" d="m285.3 560.3c0 0 236 42.4 480.8-174.7 0 0 59.2 75.2 42.5 181.1 0 0-218.4 188.2-448.6 151.2 0 0-65.4-58.7-74.7-157.6z"/>
				<path id="&lt;Path&gt;" class="s3" d="m477.4 786.6c0 0 153.8-4 286.7-104.1 0 0-35.1 65.7-126.8 97.7-91.7 32-159.9 6.4-159.9 6.4z"/>
				<path id="&lt;Compound Path&gt;" fill-rule="evenodd" class="s4" d="m1034.6 354.1c12.9 35.3-26.4 80.4-120 137.9-22.9 14.1-48.3 28.3-75.6 42.5-0.8 118.5-74.3 229.3-192.1 272.1-110.4 40.2-229.3 9.4-306.9-69q-7.9-7.9-15.2-16.6c-29.3 6.5-57.2 11.7-83.1 15.5-108.7 16-167.7 6.6-180.5-28.7-19.4-53.1 95.5-126.8 194.6-178.9 1.5-117.8 74.8-227.7 192-270.3 90.6-32.9 186.8-18.1 261.3 31.5 13.1 8.7 25.5 18.4 37.1 29.2q11.1 10.3 21.1 21.8c110.5-23.9 247.9-40.4 267.3 13zm-797.6 350.4c20.9-3.1 43.2-7.1 66.6-12-12.2-18.5-22.4-38.6-30.3-60.3-8.2-22.7-13.4-45.6-15.9-68.5-151.3 79.7-169.5 123-165.8 133.1 0.1 0.3 11.6 27.4 145.4 7.7zm767.2-339.3c-3.7-10.2-47.4-33.1-215.8 3.3 13.3 19.6 24.5 41.2 33 64.5 7.9 21.8 13 43.9 15.6 66 21.7-11.6 42.1-23.2 60.7-34.6 115.2-70.8 106.6-98.9 106.5-99.2z"/>
				<path id="&lt;Path&gt;" class="s2" d="m586.2 636.3c-119.1 43.3-234.6 74.4-325.3 87.8-101.8 15-157.2 6.2-169.2-26.9-18.8-51.6 97.4-123.8 192.3-172.9l1 32.9c-150.5 77.9-168.3 120-164.8 129.7 0.1 0.2 10.9 25.7 136.3 7.2 88.7-13.1 202.1-43.7 319.3-86.3 117.2-42.6 223.8-91.9 300.2-138.8 108-66.4 100-92.8 99.9-93.1-3.6-9.7-46.3-32-213.3 5.5l-19.8-25.6c105.2-23.6 242.7-42.1 261.6 9.8 12 33.1-24.8 75.3-112.5 129.2-78.1 48-186.7 98.3-305.7 141.5z"/>
			</g>
		</g>
		<path id="&lt;Path&gt;" class="s5" d="m382.7 402.2q9.3-13.1 18.6-26.2c13.8-19.4 29.6-40.3 52.8-45.6 10.2-2.3 22.8-0.3 27.9 8.9 2.9 5.3 2.7 11.8 1.7 17.8-3.2 18.9-13.5 36.5-28.4 48.6-5 4.1-10.5 7.5-15.1 12-5.7 5.7-9.9 12.8-14.5 19.4-10.3 14.8-38.4 52-59.2 34.4-20.8-17.7 5.2-53.7 16.2-69.3z"/>
	</g>
</svg>